<?xml version="1.0" encoding="utf-8"?>
<!-- Generator: Adobe Illustrator 16.0.3, SVG Export Plug-In . SVG Version: 6.00 Build 0)  -->
<!DOCTYPE svg PUBLIC "-//W3C//DTD SVG 1.1//EN" "http://www.w3.org/Graphics/SVG/1.1/DTD/svg11.dtd">
<svg version="1.1" id="Capa_1" xmlns="http://www.w3.org/2000/svg" xmlns:xlink="http://www.w3.org/1999/xlink" x="0px" y="0px"
	 width="402.923px" height="403.508px" viewBox="95.575 210.712 402.923 403.508"
	 enable-background="new 95.575 210.712 402.923 403.508" xml:space="preserve">
<g>
	<g>
		<path fill="#FFFFFF" d="M116.835,458.453c-6.616-16.037-12.229-28.227-16.6-40.856c-2.285-6.535,1.403-10.304,8.7-10.144
			c26.703,0.521,53.446,0.682,80.109,1.684c3.247,0.121,7.257,3.89,9.342,7.017c3.809,5.733,6.455,12.229,9.582,18.363
			c1.805-0.842,2.887-1.042,3.007-1.483c6.255-19.285,18.323-28.707,39.333-24.297c7.457,1.563,8.981-4.25,10.305-9.903
			c3.929-17.201,7.818-34.401,12.148-51.481c0.842-3.368,3.688-6.255,5.613-9.382c2.325,3.167,5.854,6.014,6.775,9.542
			c8.38,31.835,16.318,63.831,24.417,95.746c1.203,4.73,2.646,9.462,6.816,14.153c3.208-12.951,6.937-25.821,9.382-38.932
			c1.483-7.898,5.373-11.347,12.79-9.823c20.85,4.29,31.955-5.653,38.29-24.337c1.323-3.969,5.493-6.977,8.34-10.464
			c2.807,3.448,7.097,6.455,8.18,10.344c5.733,20.368,18.162,27.224,39.132,24.538c16.559-2.125,33.559-0.441,51.24-0.441
			c-0.24-13.07-5.854-21.37-13.752-27.745c-1.965-1.604-7.858,0-10.946,1.845c-4.65,2.726-8.219,7.257-12.71,10.304
			c-2.004,1.363-5.212,0.962-7.858,1.363c0.521-2.806,0.12-6.615,1.805-8.219c5.372-5.092,11.227-9.823,17.44-13.833
			c10.185-6.535,16.278-15.396,14.515-27.384c-1.805-12.229-9.342-20.328-21.09-22.934c-5.533,11.788-9.943,23.536-16.398,34.04
			c-3.97,6.415-10.705,11.387-16.92,16.078c-2.285,1.724-6.655,0.722-10.063,1.002c1.523-2.726,2.445-6.334,4.731-8.019
			c15.396-11.387,24.537-26.062,26.182-45.347c2.405-28.267-20.729-57.696-48.715-62.026c-6.095-0.922-8.26,1.563-11.628,6.455
			c-5.573,8.059-13.792,14.193-20.327,21.651c-3.97,4.531-9.503,9.983-9.663,15.156c-0.24,7.698,7.017,10.344,14.555,9.983
			c2.325-0.12,4.972-0.401,6.976,0.481c1.845,0.802,4.17,3.167,4.13,4.771c0,1.604-2.485,3.929-4.37,4.571
			c-10.425,3.648-25.62-3.408-29.67-13.432c-4.73-11.748-0.08-23.215,12.028-29.509c18.644-9.703,24.658-24.097,16.318-38.852
			c-6.375-11.227-19.525-16.88-32.315-13.913c-12.67,2.927-21.611,13.672-21.691,27.304c-0.24,38.13-0.08,76.219-0.12,114.349
			c0,3.127,0.36,6.455-0.481,9.342c-0.481,1.644-3.007,3.208-4.892,3.729c-0.802,0.201-3.047-2.245-3.407-3.769
			c-0.682-3.007-0.602-6.215-0.602-9.382c0-36.165-0.08-72.29,0-108.455c0.08-24.057,10.023-38.21,29.188-42.179
			c20.849-4.29,35.122,3.929,45.908,25.5c1.563,3.087,5.934,5.934,9.502,6.696c30.632,6.576,50.118,24.377,57.856,55.009
			c0.882,3.528,3.769,7.899,6.896,9.302c27.385,12.188,33.96,29.589,22.653,54.688c6.295,14.474,12.229,26.542,16.72,39.132
			c2.767,7.738-1.563,11.347-9.903,11.267c-23.575-0.16-47.191-0.521-70.727,0.642c-11.025,0.521-16.76-3.368-20.207-13.151
			c-1.645-4.65-4.371-8.9-6.536-13.271c-1.844,0.722-2.967,0.842-3.127,1.243c-6.495,19.566-18.684,29.349-40.375,25.379
			c-2.485-0.44-7.979,5.293-9.021,9.021c-4.73,16.96-8.099,34.32-12.509,51.401c-0.923,3.528-4.25,6.455-6.455,9.662
			c-2.005-3.047-4.973-5.894-5.854-9.222c-8.98-34.12-17.561-68.32-26.342-102.521c-0.722-2.807-1.884-5.453-4.049-11.587
			c-4.25,17.04-8.02,30.472-10.786,44.104c-1.403,6.816-4.73,10.064-11.186,8.701c-21.651-4.571-33.68,5.332-39.854,25.219
			c-1.162,3.77-4.41,6.856-8.54,13.071c-6.014-11.588-10.464-20.89-15.637-29.79c-1.924-3.328-5.533-7.939-8.46-8.02
			c-24.297-0.642-48.594-0.36-74.335-0.36c2.326,16.037,11.227,25.82,23.696,33.479c3.167,1.965,5.453,5.453,8.099,8.22
			c-3.448,0.36-7.217-0.08-10.184,1.242c-3.087,1.363-6.575,3.93-7.858,6.856c-5.935,13.672,2.165,29.55,17.16,34.722
			c15.356,5.293,32.477-2.887,37.248-17.882c0.722-2.205,0.24-4.972,1.403-6.856c1.202-1.965,3.648-3.167,5.532-4.69
			c1.203,2.525,3.77,5.252,3.448,7.577c-2.085,14.273-9.582,25.3-23.375,29.87c-9.462,3.128-9.903,7.698-7.097,15.718
			c7.538,21.41,22.573,34.36,43.903,40.655c6.977,2.045,11.467,0.762,14.313-7.137c4.812-13.312,15.437-20.568,29.229-22.453
			c3.007-0.4,6.455,2.326,9.662,3.648c-2.565,1.725-4.932,4.25-7.778,5.053c-14.955,4.37-23.735,12.95-24.778,24.898
			c-1.323,14.875,10.345,28.387,25.661,29.629c17.28,1.444,31.474-10.224,31.634-27.184c0.361-38.09,0-76.219,0.321-114.349
			c0.04-4.731,2.726-9.463,4.21-14.193c1.684,4.892,4.73,9.783,4.771,14.674c0.441,35.765,0.281,71.488,0.241,107.253
			c0,23.937-9.943,38.25-29.068,42.34c-20.689,4.41-35.323-3.93-46.028-25.34c-1.564-3.128-5.895-6.055-9.423-6.776
			c-31.153-6.655-50.759-24.858-58.297-56.052c-0.762-3.167-3.528-7.057-6.415-8.34c-27.585-12.269-34.28-29.79-23.175-53.927
			L116.835,458.453z"/>
		<path fill="#FFFFFF" d="M249.948,614.02c-16.839,0-29.79-9.463-39.412-28.668c-0.922-1.884-4.17-4.13-6.656-4.69
			c-32.957-7.057-53.605-26.903-61.344-59.02c-0.521-2.125-2.566-4.932-4.13-5.613c-15.275-6.815-24.658-15.195-28.587-25.7
			c-3.488-9.302-2.606-19.767,2.687-31.955c-1.805-4.37-3.528-8.42-5.173-12.309c-4.17-9.823-7.778-18.323-10.865-27.145
			c-1.845-5.292-0.481-8.82,0.962-10.825c1.604-2.205,5.012-4.852,11.588-4.651c8.219,0.161,16.398,0.281,24.617,0.441
			c18.203,0.281,37.048,0.562,55.571,1.283c5.372,0.2,10.384,5.613,12.509,8.78c2.847,4.25,5.012,8.821,7.137,13.231
			c7.778-19.125,22.013-26.663,42.3-22.373c2.847,0.562,3.89,0.441,5.573-6.855l1.403-6.095
			c3.408-14.915,6.937-30.351,10.785-45.467c0.762-3.087,2.646-5.613,4.25-7.858c0.642-0.882,1.283-1.764,1.845-2.646l3.127-5.052
			l3.528,4.771c0.682,0.922,1.443,1.764,2.205,2.646c2.045,2.286,4.33,4.892,5.213,8.219c6.054,22.974,11.948,46.389,17.641,69.003
			c2.246,8.94,4.491,17.842,6.776,26.742c0.4,1.645,0.842,3.248,1.403,4.812c0.2-0.722,0.36-1.443,0.562-2.165
			c2.325-8.901,4.69-18.083,6.415-27.184c1.042-5.493,3.127-9.222,6.375-11.387c2.967-1.965,6.695-2.526,11.146-1.604
			c17.281,3.568,27.345-2.927,33.68-21.691c1.203-3.568,3.93-6.335,6.295-8.78c0.962-0.962,1.884-1.925,2.727-2.927l3.087-3.769
			l3.087,3.769c0.802,1.002,1.765,1.925,2.687,2.887c2.446,2.486,5.213,5.252,6.255,8.941c5.012,17.882,15.115,24.177,34.762,21.65
			c11.708-1.523,23.335-1.162,35.604-0.802c3.93,0.12,7.898,0.241,11.868,0.281c-1.002-8.22-4.731-14.595-11.668-20.328
			c-1.162-0.16-4.49,0.642-6.735,1.925c-2.165,1.283-4.17,3.087-6.295,5.012c-1.925,1.764-3.929,3.608-6.215,5.132
			c-2.285,1.563-4.932,1.684-7.257,1.845c-0.762,0-1.523,0.08-2.205,0.2l-5.613,0.882l1.083-5.573c0.16-0.722,0.2-1.564,0.24-2.366
			c0.2-2.606,0.441-5.813,2.727-7.979c5.894-5.573,11.948-10.385,18.042-14.274c9.943-6.375,14.073-14.033,12.71-23.415
			c-1.363-9.462-6.495-15.877-14.915-18.764c-1.123,2.486-2.205,4.932-3.288,7.417c-3.729,8.42-7.217,16.398-11.867,23.977
			c-4.25,6.896-11.227,12.148-17.361,16.759l-0.562,0.401c-2.726,2.045-6.174,1.925-9.222,1.804c-1.002-0.04-2.004-0.08-2.967,0
			l-7.457,0.562l3.688-6.536c0.441-0.762,0.802-1.604,1.163-2.405c1.042-2.366,2.245-5.092,4.69-6.856
			c15.035-11.106,23.095-25.019,24.578-42.459c2.205-26.182-19.366-53.727-45.307-57.736c-3.688-0.561-4.571,0.201-7.698,4.771
			c-3.568,5.172-8.139,9.542-12.51,13.792c-2.887,2.767-5.613,5.373-8.059,8.219l-1.604,1.844
			c-3.088,3.448-6.937,7.738-7.057,10.786c-0.08,2.045,0.682,3.047,1.242,3.608c1.645,1.604,5.053,2.526,9.142,2.285h0.883
			c2.365-0.16,5.292-0.361,7.938,0.842c2.767,1.243,6.575,4.691,6.495,8.54c-0.08,3.809-4.17,7.217-7.057,8.259
			c-12.309,4.33-29.83-3.608-34.722-15.717c-5.533-13.712-0.08-27.304,13.873-34.562c9.262-4.811,15.195-10.865,17.12-17.481
			c1.483-5.052,0.682-10.384-2.446-15.837c-5.532-9.743-16.759-14.594-27.945-11.988c-11.066,2.566-18.523,11.988-18.604,23.415
			c-0.161,25.941-0.121,51.922-0.121,77.863c0,12.148,0,24.297,0,36.446c0,0.682,0,1.403,0,2.085
			c0.081,2.606,0.161,5.533-0.681,8.38c-1.123,3.769-5.493,5.854-7.658,6.455c-0.883,0.24-2.245,0.321-3.809-0.642
			c-1.765-1.083-4.01-3.729-4.571-6.134c-0.682-3.127-0.682-6.255-0.682-9.262V346.59c-0.04-29.51-0.08-59.059,0-88.568
			c0.12-32.597,17.682-43.062,32.396-46.109c22.573-4.651,38.57,4.13,50.318,27.625c0.882,1.805,4.17,4.01,6.735,4.571
			c32.437,6.937,52.925,26.462,60.903,57.977c0.682,2.646,2.927,5.854,4.651,6.616c15.035,6.696,24.217,14.955,28.186,25.299
			c3.609,9.422,2.687,20.288-2.766,33.078c1.684,3.849,3.327,7.498,4.932,11.066c4.129,9.182,8.019,17.802,11.186,26.703
			c2.045,5.773,0.722,9.462-0.762,11.587c-2.365,3.368-6.655,5.052-12.75,5.052h-0.2l-8.34-0.08
			c-20.408-0.16-41.497-0.321-62.146,0.682c-12.669,0.602-20.087-4.25-24.177-15.797c-0.922-2.606-2.245-5.133-3.648-7.738
			c-7.898,19.365-22.212,27.424-42.74,23.855c-1.443,0.762-4.49,4.05-5.012,6.055c-2.606,9.422-4.892,19.205-7.057,28.627
			c-1.725,7.458-3.488,15.156-5.453,22.693c-0.842,3.288-3.007,5.895-4.932,8.22c-0.722,0.882-1.483,1.764-2.125,2.687l-3.408,4.932
			l-3.247-5.012c-0.562-0.883-1.243-1.725-1.925-2.606c-1.684-2.205-3.648-4.731-4.45-7.778
			c-6.175-23.415-12.148-46.91-18.123-70.365c-2.605-10.225-5.212-20.408-7.818-30.632c-0.12,0.521-0.28,1.042-0.4,1.523
			c-2.727,10.665-5.092,19.847-7.017,29.229c-1.002,5.012-2.967,8.42-6.014,10.384c-2.687,1.765-6.055,2.246-9.944,1.403
			c-18.282-3.849-29.148,3.088-35.242,22.493c-0.963,3.088-2.807,5.573-5.173,8.7c-1.162,1.524-2.445,3.288-3.889,5.413
			l-3.769,5.653l-3.128-6.014c-1.804-3.448-3.448-6.696-5.012-9.783c-3.729-7.338-6.937-13.673-10.545-19.807
			c-2.045-3.528-4.41-5.813-5.292-6.055c-18.363-0.48-36.727-0.44-56.132-0.36c-4.331,0-8.661,0-13.031,0
			c2.727,10.745,9.302,18.924,20.93,26.061c2.727,1.685,4.69,4.01,6.615,6.295c0.762,0.883,1.483,1.765,2.285,2.566l5.733,5.974
			l-8.219,0.803c-1.123,0.12-2.325,0.16-3.488,0.2c-2.125,0.08-4.13,0.12-5.493,0.722c-2.687,1.203-5.132,3.207-5.813,4.812
			c-2.245,5.132-2.165,10.865,0.16,16.157c2.687,6.095,8.019,10.866,14.635,13.151c6.535,2.245,13.832,1.724,20.007-1.403
			c5.894-2.967,10.224-7.938,12.108-13.913c0.16-0.521,0.24-1.282,0.321-2.125c0.16-1.644,0.32-3.729,1.483-5.613
			c1.283-2.084,3.167-3.407,4.852-4.57c0.561-0.36,1.082-0.762,1.604-1.163l3.929-3.167l2.205,4.57
			c0.321,0.682,0.763,1.363,1.203,2.045c1.363,2.125,3.047,4.812,2.606,7.818c-2.406,16.6-11.708,28.347-26.102,33.118
			c-3.087,1.002-4.972,2.165-5.573,3.368c-0.602,1.242-0.32,3.528,0.963,7.177c6.855,19.485,20.367,31.955,41.257,38.13
			c5.533,1.644,7.457,0.682,9.382-4.651c5.132-14.193,16.358-22.894,32.477-25.099c3.328-0.441,6.335,1.162,8.98,2.565
			c0.923,0.481,1.805,0.963,2.727,1.323l7.057,2.807l-6.295,4.25c-0.722,0.481-1.443,1.043-2.125,1.604
			c-1.884,1.483-4.049,3.168-6.735,3.97c-9.382,2.767-20.809,8.7-21.932,21.41c-0.521,5.975,1.403,11.908,5.413,16.68
			c4.169,4.932,10.184,8.059,16.559,8.62c7.698,0.602,14.755-1.604,19.927-6.295c4.691-4.29,7.297-10.305,7.377-16.92
			c0.201-19.245,0.161-38.812,0.161-57.735c0-18.563,0-37.729,0.16-56.613c0-3.97,1.443-7.618,2.847-11.106
			c0.562-1.403,1.122-2.807,1.523-4.21l3.648-11.787l3.97,11.667c0.481,1.443,1.122,2.887,1.764,4.33
			c1.564,3.648,3.208,7.418,3.248,11.587c0.36,30.993,0.32,62.468,0.24,92.899v14.394c-0.08,32.557-17.602,43.142-32.275,46.269
			c-3.85,0.802-7.538,1.243-11.026,1.243L249.948,614.02z M111.382,435.198c1.042,2.486,2.125,5.052,3.288,7.738
			c1.844,4.37,3.809,8.981,5.894,13.993l0.682,1.604l-0.722,1.604c-5.012,10.865-6.055,19.806-3.168,27.384
			c3.168,8.38,11.106,15.316,24.338,21.21c4.37,1.925,7.698,7.137,8.66,11.066c7.057,29.269,25.139,46.63,55.21,53.045
			c4.17,0.882,9.863,4.33,12.148,8.94c10.023,20.007,22.854,27.185,41.618,23.175c17.4-3.688,25.86-16.238,25.9-38.41v-14.395
			c0.08-30.432,0.12-61.905-0.24-92.818c0-1.042-0.24-2.165-0.562-3.327c-0.24,0.962-0.4,1.884-0.4,2.767
			c-0.161,18.844-0.161,38.009-0.161,56.532c0,18.925,0,38.531-0.16,57.816c-0.08,8.901-3.648,17-9.983,22.773
			c-6.816,6.215-16.078,9.222-25.981,8.38c-8.5-0.682-16.519-4.852-22.052-11.427c-5.412-6.415-7.979-14.435-7.257-22.573
			c1.203-13.432,11.026-23.495,27.665-28.387c0.361-0.12,0.762-0.28,1.203-0.521c-0.602-0.24-1.083-0.4-1.403-0.36
			c-9.062,1.242-20.93,5.693-26.021,19.847c-3.328,9.302-9.623,12.429-19.205,9.622c-23.255-6.855-38.892-21.37-46.55-43.142
			c-1.483-4.21-2.727-9.101-0.602-13.392c1.645-3.327,4.892-5.693,10.225-7.457c14.594-4.812,19.285-17.16,20.688-26.663
			c-0.04-0.16-0.32-0.642-0.682-1.162c-0.401,0.32-0.762,0.642-0.922,0.962s-0.281,1.403-0.321,2.165
			c-0.12,1.163-0.2,2.486-0.642,3.85c-2.565,8.099-8.299,14.714-16.157,18.684c-8.1,4.09-17.682,4.731-26.222,1.804
			c-8.701-3.007-15.758-9.382-19.366-17.521c-3.247-7.378-3.327-15.396-0.2-22.613c1.805-4.13,6.295-7.338,9.903-8.941
			c1.082-0.481,2.245-0.802,3.368-1.002c-0.562-0.521-1.163-1.003-1.765-1.363c-9.102-5.573-15.637-11.948-19.927-19.486H111.382z
			 M277.894,350.92l4.45,12.629c0.802,2.246,1.443,4.01,2.005,5.493c0.962,2.606,1.644,4.491,2.165,6.455
			c2.767,10.705,5.493,21.45,8.22,32.155c5.974,23.456,11.987,46.911,18.122,70.326c0.32,1.122,1.082,2.365,2.045,3.648
			c1.162-1.443,2.125-2.807,2.445-4.05c1.925-7.457,3.689-15.115,5.413-22.493c2.205-9.502,4.45-19.365,7.137-28.947
			c1.283-4.571,8.059-12.911,13.592-11.908c18.523,3.408,29.55-3.608,35.845-22.694c0.762-2.245,2.767-2.847,3.929-3.208
			c0.401-0.12,0.923-0.28,1.523-0.521l3.408-1.323l1.645,3.288c0.682,1.323,1.363,2.606,2.085,3.93
			c1.684,3.087,3.407,6.295,4.65,9.823c2.887,8.179,7.137,10.945,16.238,10.464c20.89-1.002,42.099-0.842,62.587-0.682l8.34,0.08
			c3.769-0.08,5.773-0.842,6.375-1.684c0.521-0.762,0.441-2.285-0.24-4.25c-0.963-2.727-2.045-5.493-3.168-8.219
			c0.642,2.847,1.003,5.894,1.043,9.101l0.08,4.09h-4.09c-5.533,0-10.985-0.16-16.398-0.32c-11.948-0.361-23.255-0.722-34.32,0.722
			c-23.576,3.007-37.408-5.693-43.503-27.425c-0.48-1.684-2.365-3.608-4.21-5.453l-0.08-0.081l-0.12,0.121
			c-1.965,2.004-3.809,3.889-4.45,5.733c-7.618,22.533-21.651,31.354-42.901,26.984c-2.245-0.481-3.969-0.321-5.052,0.4
			c-1.363,0.922-2.365,3.007-2.967,6.215c-1.765,9.342-4.17,18.684-6.535,27.705c-1.003,3.809-1.965,7.618-2.927,11.427
			l-1.845,7.418l-5.052-5.693c-4.771-5.373-6.415-10.746-7.698-15.838c-2.245-8.9-4.53-17.842-6.775-26.783
			c-5.693-22.613-11.588-45.988-17.642-68.922c-0.321-1.203-1.363-2.566-2.606-3.969c-0.922,1.323-1.724,2.606-2.045,3.809
			c-3.809,15.035-7.337,30.392-10.745,45.267l-1.403,6.094c-1.002,4.411-3.007,13.111-11.547,13.271
			c1.443,0.2,2.927,0.441,4.41,0.762c1.764,0.361,3.047,0.281,3.889-0.28c1.123-0.722,2.005-2.566,2.526-5.293
			c1.965-9.582,4.33-18.844,7.097-29.629c1.203-4.611,2.445-9.462,3.729-14.634l3.248-12.991L277.894,350.92z M144.941,413.708
			c13.271,0,26.182,0.08,39.253,0.441c5.252,0.16,9.662,6.335,11.827,10.023c3.689,6.335,6.977,12.79,10.746,20.207
			c0.641,1.283,1.322,2.566,2.004,3.89c0.08-0.12,0.161-0.201,0.241-0.321c1.964-2.605,3.367-4.49,3.929-6.295
			c6.375-20.447,18.685-30.19,36.767-29.028c-0.04,0-0.12,0-0.16,0c-17.682-3.729-28.708,3.128-34.722,21.611
			c-0.682,2.085-2.446,2.807-3.648,3.248c-0.401,0.16-0.883,0.36-1.443,0.641l-3.528,1.685l-1.765-3.488
			c-0.922-1.845-1.844-3.688-2.727-5.573c-2.125-4.41-4.089-8.58-6.655-12.389c-2.045-3.088-5.052-5.173-6.135-5.213
			c-18.443-0.682-37.247-1.002-55.41-1.283c-8.219-0.12-16.438-0.24-24.658-0.4c-2.887-0.12-4.45,0.642-4.972,1.323
			c-0.48,0.642-0.44,1.924,0.121,3.488c0.922,2.686,1.924,5.372,2.967,8.059c-0.521-1.925-0.923-3.93-1.203-5.974l-0.682-4.571
			h4.651c6.054,0,11.988,0,17.882,0c5.854,0,11.627,0,17.32,0V413.708z M448.896,317.121l3.127,0.682
			c13.352,2.967,22.173,12.55,24.177,26.262c1.845,12.51-3.809,23.335-16.318,31.354c-5.653,3.648-11.347,8.139-16.839,13.352
			c0,0.12-0.04,0.441-0.08,0.922c0.521-0.08,0.922-0.16,1.122-0.281c1.805-1.243,3.488-2.766,5.293-4.41
			c2.325-2.125,4.73-4.33,7.657-6.054c2.606-1.523,11.066-5.052,15.517-1.483c3.689,2.967,6.656,6.134,8.981,9.623
			c-0.842-1.925-1.724-3.849-2.606-5.773c-1.844-4.09-3.729-8.3-5.693-12.791l-0.722-1.644l0.722-1.604
			c5.173-11.467,6.255-20.809,3.328-28.547c-3.127-8.26-10.986-15.036-23.937-20.809c-4.53-2.005-8.019-7.538-9.142-11.988
			c-7.257-28.708-25.219-45.748-54.809-52.083c-4.25-0.922-9.983-4.33-12.229-8.821c-9.983-20.007-22.814-27.224-41.498-23.375
			c-17.4,3.608-25.94,16.118-25.981,38.25c-0.12,29.51-0.08,59.019-0.04,88.528v20.849c0,2.686,0,5.252,0.521,7.538l0,0
			c0.321-0.2,0.521-0.401,0.642-0.521c0.361-1.323,0.28-3.408,0.24-5.573c0-0.762-0.04-1.563-0.04-2.326c0-12.148,0-24.297,0-36.445
			c0-25.981,0-51.922,0.12-77.903c0.081-15.236,10.064-27.786,24.819-31.193c14.634-3.408,29.389,2.967,36.726,15.837
			c4.17,7.337,5.253,14.996,3.168,22.092c-0.722,2.406-1.765,4.731-3.168,6.976c1.163-1.323,2.245-2.726,3.248-4.169
			c3.087-4.451,6.615-9.502,15.517-8.139c29.83,4.611,54.648,36.205,52.082,66.316c-1.684,19.887-10.785,35.684-27.785,48.233
			c-0.24,0.16-0.481,0.481-0.722,0.842c0.562,0,1.043-0.08,1.283-0.24l0.521-0.401c5.854-4.411,11.907-8.941,15.355-14.555
			c4.37-7.137,7.778-14.834,11.387-23.014c1.564-3.528,3.128-7.097,4.812-10.625l1.363-2.887H448.896z M467.981,383.958
			L467.981,383.958z M360.528,277.066c-2.045,1.403-4.25,2.727-6.655,4.01c-10.185,5.333-14.073,14.674-10.144,24.458
			c3.247,8.099,16.358,14.033,24.617,11.146c0.321-0.12,0.842-0.481,1.283-0.882c-0.4-0.401-0.922-0.842-1.323-1.002
			c-0.842-0.401-2.727-0.281-4.21-0.201h-0.922c-6.415,0.361-11.828-1.283-15.115-4.531c-2.486-2.445-3.77-5.773-3.649-9.542
			c0.161-5.974,4.892-11.266,9.102-15.917l1.563-1.764c1.765-2.005,3.649-3.929,5.493-5.774H360.528z M370.151,315.156
			L370.151,315.156z"/>
	</g>
	<g>
		<path fill="#FFFFFF" d="M195.7,378.024c-3.648-0.281-7.818,0.521-10.905-0.962c-18.604-9.062-31.033-23.576-36.888-43.542
			c-1.082-3.729-2.044-7.498-3.207-11.908c-13.352,2.285-20.368,10.505-22.773,22.413c-2.245,11.106,3.007,19.847,11.868,26.342
			c4.73,3.448,10.384,5.773,14.754,9.583c2.446,2.125,3.168,6.214,4.651,9.422c-3.288-0.561-6.977-0.361-9.823-1.804
			c-5.533-2.807-10.545-6.535-16.8-10.545c-4.37,5.292-8.099,10.224-12.349,14.675c-1.845,1.965-4.812,2.847-7.257,4.25
			c-0.401-2.807-2.165-7.057-1.003-8.139c11.828-10.866,9.943-22.813,6.937-37.127c-3.528-16.639,7.498-30.071,24.017-37.568
			c4.13-1.884,8.7-6.495,9.823-10.745c7.938-30.151,27.184-47.512,57.174-54.448c4.331-1.002,9.223-5.373,11.227-9.462
			c8.781-18.123,24.418-26.623,44.305-22.774c17.922,3.448,29.229,17.121,29.67,37.007c0.4,19.245,0.36,38.49-0.12,57.736
			c-0.081,3.368-3.248,6.695-5.013,10.023c-1.362-3.248-3.889-6.496-3.929-9.783c-0.401-19.646,0-39.292-0.28-58.938
			c-0.201-13.552-9.343-24.217-22.053-27.023c-13.271-2.887-26.662,3.408-32.677,15.316c-6.977,13.833-1.042,28.948,15.236,36.686
			c8.94,4.25,14.755,9.903,15.275,20.248c0.923,18.444-15.115,26.262-31.474,23.456c-1.644-0.281-3.528-3.007-4.01-4.932
			c-0.28-1.042,1.925-3.167,3.408-4.13c1.163-0.762,3.007-0.762,4.53-0.682c8.26,0.241,16.52-0.2,18.283-10.424
			c1.604-9.302-6.174-11.868-12.349-16.318c-6.977-5.092-13.993-11.748-17.722-19.326c-3.81-7.738-8.18-8.219-14.755-6.616
			c-23.295,5.613-41.858,25.701-45.307,48.916c-3.608,24.217,7.337,46.87,28.868,59.78c3.889,2.326,7.738,4.691,11.627,7.057
			c-0.28,1.443-0.562,2.847-0.842,4.29H195.7z"/>
		<path fill="#FFFFFF" d="M103.844,402.281l-0.842-5.814c-0.12-0.762-0.36-1.644-0.562-2.526c-0.802-3.167-1.764-6.776,0.842-9.142
			c9.984-9.141,8.821-18.724,5.734-33.358c-3.649-17.24,6.174-32.958,26.302-42.019c3.287-1.483,6.855-5.292,7.577-8.099
			c8.18-31.113,27.826-49.837,60.142-57.335c2.967-0.682,6.977-4.089,8.5-7.297c9.663-19.967,27.385-29.068,48.675-24.979
			c19.847,3.809,32.477,19.486,32.917,40.856c0.401,18.844,0.361,38.331-0.12,57.937c-0.08,3.448-2.005,6.375-3.729,8.981
			c-0.642,0.922-1.243,1.885-1.724,2.807l-3.93,7.538l-3.288-7.818c-0.4-0.922-0.882-1.844-1.363-2.766
			c-1.322-2.486-2.807-5.292-2.887-8.5c-0.2-10.265-0.2-20.689-0.16-30.752c0-9.382,0-18.804-0.12-28.187
			c-0.2-11.427-7.778-20.729-18.885-23.174c-11.427-2.486-23.054,2.927-28.267,13.231c-2.686,5.373-3.167,10.946-1.403,16.198
			c2.125,6.174,7.378,11.547,14.755,15.035c7.217,3.408,16.88,9.623,17.562,23.696c0.441,8.62-2.405,15.917-8.18,21.009
			c-6.735,5.974-17.2,8.42-28.025,6.576c-3.769-0.642-6.495-5.012-7.217-7.898c-1.083-4.21,4.09-7.818,5.132-8.46
			c2.285-1.483,5.132-1.363,6.856-1.363c10.144,0.281,13.19-1.243,14.193-7.097c0.762-4.531-1.163-6.215-6.977-9.863
			c-1.283-0.802-2.566-1.644-3.81-2.526c-6.174-4.491-14.514-11.748-18.924-20.769c-2.646-5.373-4.651-5.813-10.225-4.49
			c-21.69,5.212-39.092,23.976-42.299,45.627c-3.368,22.774,6.695,43.623,26.983,55.731c2.687,1.604,5.372,3.248,8.059,4.892
			l5.975,3.648l-2.085,10.505l-3.528-0.281c-1.043-0.081-2.125-0.04-3.208,0c-2.887,0.04-6.175,0.12-9.142-1.323
			c-19.767-9.623-32.877-25.099-38.972-46.068c-0.722-2.486-1.403-5.012-2.125-7.738l-0.12-0.481
			c-8.74,2.566-13.993,8.62-15.957,18.443c-1.725,8.54,1.724,16.038,10.304,22.292c1.885,1.363,3.93,2.566,6.095,3.809
			c3.007,1.764,6.134,3.568,8.9,5.974c2.486,2.125,3.568,5.212,4.571,7.899c0.36,0.962,0.682,1.924,1.122,2.807l3.208,6.896
			l-7.538-1.243c-0.922-0.161-1.885-0.241-2.887-0.321c-2.566-0.241-5.493-0.521-8.139-1.845c-4.05-2.044-7.818-4.57-11.788-7.217
			c-0.762-0.521-1.563-1.042-2.365-1.563c-0.481,0.601-0.963,1.163-1.443,1.764c-2.968,3.648-5.734,7.097-8.861,10.344
			c-1.804,1.884-4.05,2.967-6.014,3.889c-0.722,0.361-1.443,0.682-2.125,1.083l-5.093,2.887L103.844,402.281z M109.657,389.771
			c0,0,0,0.161,0.041,0.281c0.641-0.361,1.202-0.722,1.604-1.163c2.887-3.007,5.573-6.335,8.38-9.863
			c1.202-1.523,2.445-3.047,3.769-4.611l2.245-2.727l2.967,1.925c1.925,1.243,3.729,2.446,5.493,3.608
			c3.97,2.646,7.377,4.892,10.986,6.736c0.521,0.281,1.122,0.441,1.804,0.602c-0.32-0.682-0.682-1.243-1.082-1.564
			c-2.206-1.924-4.892-3.448-7.698-5.092c-2.286-1.323-4.611-2.687-6.816-4.29c-11.146-8.139-15.757-18.644-13.392-30.352
			c2.887-14.313,11.868-23.134,26.021-25.58l3.608-0.642l2.085,7.778c0.682,2.646,1.363,5.132,2.045,7.578
			c5.453,18.684,17.12,32.477,34.762,41.097c0.682,0.321,1.604,0.481,2.646,0.521c-2.125-1.283-4.21-2.566-6.335-3.849
			c-22.814-13.672-34.602-38.089-30.793-63.79c3.688-24.778,23.575-46.269,48.354-52.243c6.977-1.684,14.113-1.764,19.286,8.74
			c3.729,7.538,11.025,13.873,16.479,17.842c1.082,0.802,2.245,1.523,3.368,2.245c5.172,3.288,12.269,7.818,10.545,18.002
			c-2.446,14.354-15.356,13.953-22.333,13.792c-0.521,0-1.925-0.04-2.365,0.12c-0.361,0.241-0.722,0.562-1.043,0.882
			c0.241,0.361,0.481,0.682,0.682,0.882c8.3,1.323,16.078-0.441,20.93-4.731c3.929-3.488,5.773-8.42,5.492-14.635
			c-0.4-7.738-4.169-12.629-12.99-16.839c-9.342-4.451-16.078-11.427-18.884-19.687c-2.526-7.337-1.885-15.075,1.804-22.413
			c6.856-13.552,22.132-20.729,37.127-17.441c14.835,3.248,24.939,15.637,25.22,30.873c0.16,9.422,0.16,18.884,0.12,28.347
			c0,10.023,0,20.408,0.16,30.592c0,0.441,0.121,0.962,0.321,1.524c0.36-0.682,0.602-1.323,0.602-1.805
			c0.48-19.485,0.521-38.851,0.12-57.575c-0.361-17.642-10.265-30.031-26.422-33.158c-17.682-3.448-31.875,3.93-39.935,20.609
			c-2.605,5.373-8.58,10.384-13.912,11.627c-29.108,6.736-46.87,23.616-54.208,51.562c-1.523,5.854-7.337,11.267-12.028,13.392
			c-16.438,7.417-24.537,19.766-21.73,33.078c2.726,12.79,5.773,27.264-7.138,39.974L109.657,389.771z"/>
	</g>
	<g>
		<path fill="#FFFFFF" d="M475.358,454.805c13.191,27.144,6.375,44.905-21.49,57.575c-2.847,1.283-5.533,5.253-6.295,8.5
			c-7.618,31.153-27.264,49.196-58.377,56.012c-3.93,0.842-8.38,5.173-10.225,9.021c-8.38,17.722-24.177,26.703-42.9,23.335
			c-19.165-3.488-30.552-16.64-31.033-37.007c-0.44-18.845-0.32-37.729,0.08-56.573c0.08-3.087,3.047-6.135,4.691-9.182
			c1.483,3.167,4.17,6.295,4.25,9.502c0.4,18.845-0.161,37.729,0.32,56.573c0.562,22.894,24.938,35.563,44.305,23.375
			c9.502-5.974,14.354-14.675,12.83-25.82c-1.604-12.068-9.182-19.326-20.648-23.175c-4.17-1.403-7.778-4.49-11.668-6.856
			c5.333-0.561,10.986-2.525,15.877-1.363c11.348,2.687,19.646,10.265,23.215,21.411c2.486,7.778,7.177,8.42,13.432,6.655
			c21.892-6.135,37.248-19.365,44.665-41.297c2.486-7.298,2.366-11.908-6.735-14.875c-13.753-4.491-20.729-15.437-24.177-29.51
			c-2.165-8.7-6.937-16.759-10.345-25.219c-0.922-2.286-1.123-4.892-1.644-7.338c2.767,0.241,7.257-0.44,7.979,0.882
			c4.972,9.423,10.785,18.845,13.271,28.988c3.448,14.354,12.509,24.458,26.742,25.22c15.276,0.802,27.145-7.778,30.512-22.012
			c2.847-12.068-2.205-18.724-14.474-19.446c-1.684-0.08-4.53-1.483-4.611-2.445c-0.16-1.845,0.723-4.45,2.125-5.733
			c8.46-7.858,17.121-15.517,25.901-23.015c1.523-1.322,3.97-1.604,5.974-2.365c0.602,2.406,2.486,5.533,1.604,7.057
			c-3.729,6.335-8.3,12.229-13.111,19.085L475.358,454.805z"/>
		<path fill="#FFFFFF" d="M343.769,613.939c-2.767,0-5.573-0.241-8.42-0.763c-21.29-3.889-33.8-18.764-34.32-40.855
			c-0.401-17.481-0.361-36.045,0.08-56.733c0.08-3.288,1.924-6.015,3.528-8.42c0.561-0.842,1.162-1.685,1.604-2.526l3.769-7.057
			l3.408,7.258c0.4,0.882,0.962,1.764,1.483,2.646c1.443,2.446,3.087,5.213,3.167,8.46c0.201,9.222,0.161,18.604,0.161,27.665
			c0,9.463-0.041,19.285,0.16,28.868c0.24,9.182,5.012,17.12,12.79,21.29c7.938,4.25,17.4,3.809,25.38-1.203
			c8.54-5.372,12.229-12.75,10.985-21.892c-1.323-9.782-7.177-16.318-17.962-19.927c-3.408-1.122-6.295-3.087-9.062-4.972
			c-1.123-0.762-2.245-1.523-3.408-2.205l-10.304-6.175l11.948-1.242c1.563-0.16,3.167-0.441,4.73-0.762
			c4.09-0.762,8.3-1.523,12.51-0.521c12.83,3.047,22.132,11.587,26.142,24.057c1.523,4.731,3.167,5.533,8.54,4.01
			c21.45-5.975,35.162-18.645,41.938-38.731c1.163-3.488,1.443-5.573,0.882-6.736c-0.562-1.082-2.285-2.165-5.012-3.047
			c-13.792-4.49-22.573-15.075-26.863-32.356c-1.323-5.332-3.688-10.384-6.215-15.797c-1.362-2.927-2.766-5.894-3.969-8.9
			c-0.802-1.965-1.123-4.01-1.443-5.814c-0.12-0.722-0.241-1.443-0.401-2.165l-1.122-5.332l5.412,0.48c0.762,0.081,1.645,0,2.566,0
			c3.288-0.04,6.977-0.08,8.62,2.968c0.882,1.684,1.805,3.327,2.727,5.012c4.29,7.898,8.78,16.077,10.905,24.938
			c1.885,7.898,7.418,21.29,23.055,22.132c13.352,0.722,23.495-6.535,26.422-18.925c1.123-4.771,0.842-8.379-0.882-10.665
			c-1.684-2.285-5.052-3.568-9.943-3.849c-2.005-0.12-7.979-1.845-8.38-6.095c-0.28-3.127,1.123-6.936,3.368-9.021
			c8.139-7.538,16.639-15.116,26.021-23.135c1.724-1.483,3.809-2.045,5.452-2.526c0.562-0.16,1.123-0.32,1.685-0.521l4.21-1.604
			l1.082,4.371c0.16,0.601,0.441,1.282,0.682,1.964c0.922,2.406,2.045,5.413,0.481,8.1c-2.807,4.771-6.015,9.222-9.423,13.952
			c-0.842,1.163-1.684,2.326-2.565,3.528c6.174,13.553,7.457,24.979,3.929,34.803c-3.809,10.544-13.07,19.044-28.387,26.021
			c-1.523,0.682-3.528,3.528-4.049,5.773c-7.818,31.915-28.468,51.762-61.425,58.979c-2.446,0.521-6.015,3.809-7.458,6.815
			c-8.019,16.88-22.172,26.342-38.811,26.342V613.939z M309.568,514.385c-0.28,0.521-0.44,1.002-0.44,1.363
			c-0.481,20.568-0.481,39.012-0.08,56.372c0.44,18.203,10.264,29.991,27.745,33.158c16.719,3.048,30.792-4.65,38.57-21.089
			c2.165-4.531,7.418-10.024,12.991-11.227c30.15-6.576,48.233-23.937,55.33-53.045c1.002-4.09,4.25-9.222,8.54-11.187
			c13.23-6.014,21.129-13.03,24.137-21.45c2.967-8.22,1.443-18.283-4.611-30.753l-1.042-2.125l1.363-1.924
			c1.322-1.925,2.646-3.729,3.929-5.533c3.128-4.33,6.095-8.42,8.62-12.63c-0.04-0.2-0.12-0.441-0.24-0.722
			c-0.361,0.12-0.682,0.28-0.842,0.441c-9.302,7.938-17.722,15.436-25.781,22.894c-0.2,0.2-0.44,0.602-0.601,1.082
			c0.24,0.081,0.44,0.161,0.601,0.161c7.338,0.4,12.71,2.807,15.878,7.057c3.207,4.29,3.929,10.104,2.245,17.28
			c-3.809,16.158-17.441,26.062-34.642,25.099c-15.195-0.802-26.302-11.105-30.432-28.266c-1.884-7.819-6.094-15.517-10.144-22.975
			c-0.682-1.283-1.403-2.525-2.085-3.809c-0.08,0-0.2,0-0.321,0c0.161,0.642,0.321,1.242,0.521,1.764
			c1.163,2.847,2.486,5.653,3.81,8.5c2.565,5.493,5.252,11.187,6.735,17.241c3.608,14.554,10.465,23.054,21.53,26.662
			c5.013,1.645,8.14,3.89,9.703,7.057c2.045,4.09,1.003,8.62-0.44,12.91c-7.578,22.453-23.536,37.208-47.392,43.863
			c-3.488,0.963-14.113,3.93-18.323-9.302c-3.128-9.702-10.345-16.358-20.328-18.724c-1.123-0.281-2.405-0.321-3.729-0.201
			c0.562,0.281,1.122,0.521,1.684,0.682c13.753,4.611,21.611,13.512,23.375,26.463c1.645,12.389-3.408,22.693-14.675,29.75
			c-10.424,6.535-22.934,7.097-33.438,1.483c-10.344-5.533-16.719-16.078-17-28.146c-0.24-9.703-0.2-19.565-0.16-29.108
			c0-9.021,0.04-18.323-0.16-27.465c0-0.48-0.2-1.042-0.481-1.644L309.568,514.385z"/>
	</g>
</g>
</svg>
